HIERARCHY
ROOT Hips
{
  OFFSET -10.6665 90.3971 -0.332286
  CHANNELS 6 Xposition Yposition Zposition Zrotation Xrotation Yrotation
  JOINT Spine
  {
    OFFSET -1.46851e-05 4.73261 7.09893
    CHANNELS 3 Zrotation Xrotation Yrotation
    JOINT Spine1
    {
      OFFSET 0 0 9.46522
      CHANNELS 3 Zrotation Xrotation Yrotation
      JOINT Spine2
      {
        OFFSET 0 0 9.46522
        CHANNELS 3 Zrotation Xrotation Yrotation
        JOINT Spine3
        {
          OFFSET 0 0 9.46522
          CHANNELS 3 Zrotation Xrotation Yrotation
          JOINT Neck
          {
            OFFSET -5.05472e-05 -3.54969 24.8473
            CHANNELS 3 Zrotation Xrotation Yrotation
            JOINT Head
            {
              OFFSET 1.45611e-05 -0.000116739 13.0148
              CHANNELS 3 Zrotation Xrotation Yrotation
              End Site
              {
                OFFSET 0 0 15.3218
              }
            }
          }
          JOINT RightShoulder
          {
            OFFSET -3.19951 -5.3325 17.2773
            CHANNELS 3 Zrotation Xrotation Yrotation
            JOINT RightArm
            {
              OFFSET 15.8909 -1.00586e-05 -1.14203e-05
              CHANNELS 3 Zrotation Xrotation Yrotation
              JOINT RightForeArm
              {
                OFFSET 29.5438 0 -1.47894e-05
                CHANNELS 3 Zrotation Xrotation Yrotation
                JOINT RightHand
                {
                  OFFSET 23.2654 -3.04293e-05 7.29393e-05
                  CHANNELS 3 Zrotation Xrotation Yrotation
                  JOINT hand_r
                  {
                    OFFSET 0 0 0
                    CHANNELS 3 Zrotation Xrotation Yrotation
                    JOINT index_metacarpal_r
                    {
                      OFFSET 4.55228 -0.202954 -2.08917
                      CHANNELS 3 Zrotation Xrotation Yrotation
                      JOINT index_01_r
                      {
                        OFFSET 5.54923 0.000312777 0
                        CHANNELS 3 Zrotation Xrotation Yrotation
                        JOINT index_02_r
                        {
                          OFFSET 5.01112 -4.36171e-05 -1.37702e-05
                          CHANNELS 3 Zrotation Xrotation Yrotation
                          JOINT index_03_r
                          {
                            OFFSET 2.80713 7.13585e-05 2.33621e-05
                            CHANNELS 3 Zrotation Xrotation Yrotation
                            JOINT index_tip_r
                            {
                              OFFSET 1.94578 -0.0255504 -0.00660888
                              CHANNELS 3 Zrotation Xrotation Yrotation
                              End Site
                              {
                                OFFSET 0 0 0
                              }
                            }
                          }
                        }
                      }
                    }
                    JOINT middle_metacarpal_r
                    {
                      OFFSET 4.43628 0.310368 -0.243451
                      CHANNELS 3 Zrotation Xrotation Yrotation
                      JOINT middle_01_r
                      {
                        OFFSET 5.62919 -0.00142779 -0.00283061
                        CHANNELS 3 Zrotation Xrotation Yrotation
                        JOINT middle_02_r
                        {
                          OFFSET 5.31959 -0.00127684 -0.00652798
                          CHANNELS 3 Zrotation Xrotation Yrotation
                          JOINT middle_03_r
                          {
                            OFFSET 3.06922 -0.0282912 0
                            CHANNELS 3 Zrotation Xrotation Yrotation
                            JOINT middle_tip_r
                            {
                              OFFSET 2.50658 0 0
                              CHANNELS 3 Zrotation Xrotation Yrotation
                              End Site
                              {
                                OFFSET 0 0 0
                              }
                            }
                          }
                        }
                      }
                    }
                    JOINT ring_metacarpal_r
                    {
                      OFFSET 4.43977 0.265017 1.00656
                      CHANNELS 3 Zrotation Xrotation Yrotation
                      JOINT ring_01_r
                      {
                        OFFSET 5.0154 0 0
                        CHANNELS 3 Zrotation Xrotation Yrotation
                        JOINT ring_02_r
                        {
                          OFFSET 4.75487 0 0
                          CHANNELS 3 Zrotation Xrotation Yrotation
                          JOINT ring_03_r
                          {
                            OFFSET 3.08319 -3.69787e-05 -3.09522e-05
                            CHANNELS 3 Zrotation Xrotation Yrotation
                            JOINT ring_tip_r
                            {
                              OFFSET 2.2903 0 0
                              CHANNELS 3 Zrotation Xrotation Yrotation
                              End Site
                              {
                                OFFSET 0 0 0
                              }
                            }
                          }
                        }
                      }
                    }
                    JOINT pinky_metacarpal_r
                    {
                      OFFSET 4.37277 0.181067 2.21874
                      CHANNELS 3 Zrotation Xrotation Yrotation
                      JOINT pinky_01_r
                      {
                        OFFSET 4.08584 0 0
                        CHANNELS 3 Zrotation Xrotation Yrotation
                        JOINT pinky_02_r
                        {
                          OFFSET 3.45214 0 0.000246361
                          CHANNELS 3 Zrotation Xrotation Yrotation
                          JOINT pinky_03_r
                          {
                            OFFSET 1.80886 0 0
                            CHANNELS 3 Zrotation Xrotation Yrotation
                            JOINT pinky_tip_r
                            {
                              OFFSET 1.96367 -0.00623406 -0.0107351
                              CHANNELS 3 Zrotation Xrotation Yrotation
                              End Site
                              {
                                OFFSET 0 0 0
                              }
                            }
                          }
                        }
                      }
                    }
                    JOINT thumb_01_r
                    {
                      OFFSET 3.27167 0.0787094 -3.1791
                      CHANNELS 3 Zrotation Xrotation Yrotation
                      JOINT thumb_02_r
                      {
                        OFFSET 4.50608 0.0103973 0.0256825
                        CHANNELS 3 Zrotation Xrotation Yrotation
                        JOINT thumb_03_r
                        {
                          OFFSET 3.21924 0.00745928 0.0147835
                          CHANNELS 3 Zrotation Xrotation Yrotation
                          JOINT thumb_tip_r
                          {
                            OFFSET 2.74281 0.00860156 0.0203911
                            CHANNELS 3 Zrotation Xrotation Yrotation
                            End Site
                            {
                              OFFSET 0 0 0
                            }
                          }
                        }
                      }
                    }
                  }
                }
              }
            }
          }
          JOINT LeftShoulder
          {
            OFFSET 3.1995 -5.33251 17.2772
            CHANNELS 3 Zrotation Xrotation Yrotation
            JOINT LeftArm
            {
              OFFSET 15.8909 0 1.36089e-05
              CHANNELS 3 Zrotation Xrotation Yrotation
              JOINT LeftForeArm
              {
                OFFSET 29.5438 1.18454e-05 0
                CHANNELS 3 Zrotation Xrotation Yrotation
                JOINT LeftHand
                {
                  OFFSET 23.2653 1.75249e-05 1.34784e-05
                  CHANNELS 3 Zrotation Xrotation Yrotation
                  JOINT hand_l
                  {
                    OFFSET 0 0 0
                    CHANNELS 3 Zrotation Xrotation Yrotation
                    JOINT index_metacarpal_l
                    {
                      OFFSET 4.5523 0.225724 -2.08688
                      CHANNELS 3 Zrotation Xrotation Yrotation
                      JOINT index_01_l
                      {
                        OFFSET 5.54923 0 0
                        CHANNELS 3 Zrotation Xrotation Yrotation
                        JOINT index_02_l
                        {
                          OFFSET 4.7526 3.44303e-05 0
                          CHANNELS 3 Zrotation Xrotation Yrotation
                          JOINT index_03_l
                          {
                            OFFSET 2.6623 -6.65519e-05 0
                            CHANNELS 3 Zrotation Xrotation Yrotation
                            JOINT index_tip_l
                            {
                              OFFSET 2.34814 2.96896e-05 -2.02178e-05
                              CHANNELS 3 Zrotation Xrotation Yrotation
                              End Site
                              {
                                OFFSET 0 0 0
                              }
                            }
                          }
                        }
                      }
                    }
                    JOINT middle_metacarpal_l
                    {
                      OFFSET 4.43632 -0.307568 -0.246753
                      CHANNELS 3 Zrotation Xrotation Yrotation
                      JOINT middle_01_l
                      {
                        OFFSET 5.62913 1.51121e-05 0
                        CHANNELS 3 Zrotation Xrotation Yrotation
                        JOINT middle_02_l
                        {
                          OFFSET 5.31957 6.69871e-05 -4.44924e-05
                          CHANNELS 3 Zrotation Xrotation Yrotation
                          JOINT middle_03_l
                          {
                            OFFSET 3.06922 0.027544 0.000162299
                            CHANNELS 3 Zrotation Xrotation Yrotation
                            JOINT middle_tip_l
                            {
                              OFFSET 2.50661 0 2.26248e-05
                              CHANNELS 3 Zrotation Xrotation Yrotation
                              End Site
                              {
                                OFFSET 0 0 0
                              }
                            }
                          }
                        }
                      }
                    }
                    JOINT ring_metacarpal_l
                    {
                      OFFSET 4.43976 -0.275297 1.00367
                      CHANNELS 3 Zrotation Xrotation Yrotation
                      JOINT ring_01_l
                      {
                        OFFSET 5.01539 -1.34956e-05 2.9713e-05
                        CHANNELS 3 Zrotation Xrotation Yrotation
                        JOINT ring_02_l
                        {
                          OFFSET 4.75364 1.61146e-05 0
                          CHANNELS 3 Zrotation Xrotation Yrotation
                          JOINT ring_03_l
                          {
                            OFFSET 2.9702 1.10381e-05 -3.22438e-05
                            CHANNELS 3 Zrotation Xrotation Yrotation
                            JOINT ring_tip_l
                            {
                              OFFSET 2.40214 0 1.49715e-05
                              CHANNELS 3 Zrotation Xrotation Yrotation
                              End Site
                              {
                                OFFSET 0 0 0
                              }
                            }
                          }
                        }
                      }
                    }
                    JOINT pinky_metacarpal_l
                    {
                      OFFSET 4.37277 -0.205248 2.21668
                      CHANNELS 3 Zrotation Xrotation Yrotation
                      JOINT pinky_01_l
                      {
                        OFFSET 4.0859 0 -4.18126e-05
                        CHANNELS 3 Zrotation Xrotation Yrotation
                        JOINT pinky_02_l
                        {
                          OFFSET 3.45025 0 0.00616076
                          CHANNELS 3 Zrotation Xrotation Yrotation
                          JOINT pinky_03_l
                          {
                            OFFSET 1.80687 -0.0119042 -1.07122e-05
                            CHANNELS 3 Zrotation Xrotation Yrotation
                            JOINT pinky_tip_l
                            {
                              OFFSET 1.96353 0 0
                              CHANNELS 3 Zrotation Xrotation Yrotation
                              End Site
                              {
                                OFFSET 0 0 0
                              }
                            }
                          }
                        }
                      }
                    }
                    JOINT thumb_01_l
                    {
                      OFFSET 3.27172 -0.0452084 -3.17976
                      CHANNELS 3 Zrotation Xrotation Yrotation
                      JOINT thumb_02_l
                      {
                        OFFSET 4.50637 -6.2484e-05 6.31775e-05
                        CHANNELS 3 Zrotation Xrotation Yrotation
                        JOINT thumb_03_l
                        {
                          OFFSET 3.21913 1.89711e-05 1.86067e-05
                          CHANNELS 3 Zrotation Xrotation Yrotation
                          JOINT thumb_tip_l
                          {
                            OFFSET 2.74277 0 1.27577e-05
                            CHANNELS 3 Zrotation Xrotation Yrotation
                            End Site
                            {
                              OFFSET 0 0 0
                            }
                          }
                        }
                      }
                    }
                  }
                }
              }
            }
          }
        }
      }
    }
  }
  JOINT RightUpLeg
  {
    OFFSET -9.49182 0 -2.77289
    CHANNELS 3 Zrotation Xrotation Yrotation
    JOINT RightLeg
    {
      OFFSET 41.2121 1.12028e-05 0
      CHANNELS 3 Zrotation Xrotation Yrotation
      JOINT RightFoot
      {
        OFFSET 45.6093 0 2.24315e-05
        CHANNELS 3 Zrotation Xrotation Yrotation
        JOINT RightToeBase
        {
          OFFSET 17.0971 1.64548e-05 0
          CHANNELS 3 Zrotation Xrotation Yrotation
          End Site
          {
            OFFSET 7.67878 0 0
          }
        }
      }
    }
  }
  JOINT LeftUpLeg
  {
    OFFSET 9.4919 0 -2.7729
    CHANNELS 3 Zrotation Xrotation Yrotation
    JOINT LeftLeg
    {
      OFFSET 41.2121 -1.16007e-05 1.66811e-05
      CHANNELS 3 Zrotation Xrotation Yrotation
      JOINT LeftFoot
      {
        OFFSET 45.6096 0 1.57059e-05
        CHANNELS 3 Zrotation Xrotation Yrotation
        JOINT LeftToeBase
        {
          OFFSET 17.097 1.81546e-05 1.28715e-05
          CHANNELS 3 Zrotation Xrotation Yrotation
          End Site
          {
            OFFSET 7.67878 0 0
          }
        }
      }
    }
  }
}
MOTION
Frames:	4
Frame Time:	0.0333333
-10.668 90.4112 -0.288275 -86.9615 -64.8469 -87.985 0.257771 -11.4939 0.593376 -3.77951 3.07128 0.818584 -4.34927 12.3792 0.456444 -3.63448 -0.454438 -0.184073 29.9791 13.253 1.65691 34.4793 -14.7841 8.81784 -13.9209 11.2985 170.781 -29.1698 8.05935 -56.3997 -16.9523 0.336384 -0.000887519 16.6737 7.61958 1.07407 180 -89.388 -180 3.07042 0.0444704 0.55899 -15.9401 0.781185 0.76793 -11.7546 -0.795219 0.0927648 -10.9616 -0.835006 0.206619 -10.643 -0.0593875 0.299966 -2.71603 0.214964 -1.58331 -13.5474 1.57695 0.981598 -13.2579 0.894802 -0.319486 -12.7542 0.913385 -0.482711 -11.0262 0.0594462 -0.543609 -2.33297 0.204782 -8.7873 -15.5797 -0.850798 7.68903 -13.2484 0.608552 -0.208834 -11.9138 0.61889 -0.321499 -10.6088 0.0378932 -0.372439 -2.04299 -0.0538833 -19.4375 -15.1862 -2.45696 16.4811 -16.6104 1.78749 -0.602704 -13.4033 1.76351 -0.884519 -10.677 0.0257205 -0.786579 95.0077 -59.0511 110.631 -4.29901 -0.0379956 -0.0500111 0.696347 -0.395881 0.362202 -0.00195946 -0.0416482 0.141857 14.5729 8.85711 -0.557174 -26.8865 1.67011 56.2033 -28.6286 -0.23954 -0.0023096 11.7437 -15.5493 -1.77008 -0 -90 3.18055e-15 -3.0705 -0.0443943 0.559064 17.0847 -0.867784 -3.97132 12.8614 0.785994 -0.0137653 12.0691 0.80075 0.123961 11.7507 0.0261526 0.232528 2.71604 -0.214887 -1.58355 14.5842 -1.61845 -0.923625 14.3566 -0.911187 -0.459364 13.8506 -0.933091 -0.638559 12.1224 -0.0852225 -0.715474 2.33304 -0.204677 -8.78688 16.5503 0.873854 2.68147 14.3495 -0.623613 -0.339524 13.0137 -0.635582 -0.46261 11.7082 -0.0586325 -0.524625 2.04342 0.0538877 -19.438 15.9565 2.49195 7.56953 17.7068 -1.81419 -0.744704 14.4924 -1.84595 -1.05722 11.7658 -0.113154 -0.991232 -95.008 59.0516 110.631 4.29923 0.0379109 -0.0503278 3.36232 0.47645 0.37515 0.0019756 0.0416069 0.141584 2.90561 -17.4015 97.0364 42.7581 -2.40685 0.000738186 -97.0784 7.87462 9.07674 -19.0346 7.40775e-06 0.00124428 14.1162 -16.8928 72.3029 25.5394 -2.54551 -0.00135889 -78.6586 -21.4093 -8.08437 -20.0448 3.30127e-06 -5.58754e-05 
-10.6659 90.4066 -0.310036 -86.7447 -64.85 -87.7352 0.245264 -11.5593 0.584619 -3.78186 3.0623 0.814566 -4.35583 12.4566 0.470153 -3.6489 -0.43903 -0.174649 30.0145 13.1813 1.66734 34.4511 -14.886 8.94261 -13.8936 11.3729 170.602 -29.3701 8.15426 -56.1952 -16.3616 0.33581 -0.00284983 16.2074 7.79695 1.19038 180 -89.388 -180 3.07042 0.0444704 0.55899 -15.9401 0.781185 0.76793 -11.7546 -0.795219 0.0927648 -10.9616 -0.835006 0.206619 -10.643 -0.0593875 0.299966 -2.71603 0.214964 -1.58331 -13.5474 1.57695 0.981598 -13.2579 0.894802 -0.319486 -12.7542 0.913385 -0.482711 -11.0262 0.0594462 -0.543609 -2.33297 0.204782 -8.7873 -15.5797 -0.850798 7.68903 -13.2484 0.608552 -0.208834 -11.9138 0.61889 -0.321499 -10.6088 0.0378932 -0.372439 -2.04299 -0.0538833 -19.4375 -15.1862 -2.45696 16.4811 -16.6104 1.78749 -0.602704 -13.4033 1.76351 -0.884519 -10.677 0.0257205 -0.786579 95.0077 -59.0511 110.631 -4.29901 -0.0379956 -0.0500111 0.696347 -0.395881 0.362202 -0.00195946 -0.0416482 0.141857 14.5946 8.95261 -0.406608 -26.8486 1.66972 55.976 -28.6909 -0.243742 -0.00366378 11.7018 -15.5574 -1.9719 -0 -90 -1.6072e-30 -3.0705 -0.0443943 0.559064 17.0847 -0.867784 -3.97132 12.8614 0.785994 -0.0137653 12.0691 0.80075 0.123961 11.7507 0.0261526 0.232528 2.71604 -0.214887 -1.58355 14.5842 -1.61845 -0.923625 14.3566 -0.911187 -0.459364 13.8506 -0.933091 -0.638559 12.1224 -0.0852225 -0.715474 2.33304 -0.204677 -8.78688 16.5503 0.873854 2.68147 14.3495 -0.623613 -0.339524 13.0137 -0.635582 -0.46261 11.7082 -0.0586325 -0.524625 2.04342 0.0538877 -19.438 15.9565 2.49195 7.56953 17.7068 -1.81419 -0.744704 14.4924 -1.84595 -1.05722 11.7658 -0.113154 -0.991232 -95.008 59.0516 110.631 4.29923 0.0379109 -0.0503278 3.36232 0.47645 0.37515 0.0019756 0.0416069 0.141584 2.85095 -17.5036 96.9803 42.7385 -2.4123 0.000692093 -97.0715 7.85537 9.05759 -19.0009 6.05696e-06 0.00121313 14.1628 -17.0619 72.27 25.5928 -2.54383 -0.00122386 -78.6597 -21.389 -8.0157 -20.149 7.58605e-06 -0.00012045 
-10.6665 90.3971 -0.332286 -86.5562 -64.844 -87.5085 0.231883 -11.6128 0.562381 -3.77987 3.05348 0.814974 -4.33845 12.5292 0.486939 -3.64697 -0.424546 -0.177372 30.0252 13.1312 1.63643 34.5058 -14.9917 9.05879 -13.9057 11.4529 170.421 -29.5864 8.28666 -55.9751 -15.7197 0.25162 -0.00252033 15.8459 7.96459 1.3904 180 -89.388 -180 3.07042 0.0444704 0.55899 -15.9401 0.781185 0.76793 -11.7546 -0.795219 0.0927648 -10.9616 -0.835006 0.206619 -10.643 -0.0593875 0.299966 -2.71603 0.214964 -1.58331 -13.5474 1.57695 0.981598 -13.2579 0.894802 -0.319486 -12.7542 0.913385 -0.482711 -11.0262 0.0594462 -0.543609 -2.33297 0.204782 -8.7873 -15.5797 -0.850798 7.68903 -13.2484 0.608552 -0.208834 -11.9138 0.61889 -0.321499 -10.6088 0.0378932 -0.372439 -2.04299 -0.0538833 -19.4375 -15.1862 -2.45696 16.4811 -16.6104 1.78749 -0.602704 -13.4033 1.76351 -0.884519 -10.677 0.0257205 -0.786579 95.0077 -59.0511 110.631 -4.29901 -0.0379956 -0.0500111 0.696347 -0.395881 0.362202 -0.00195946 -0.0416482 0.141857 14.5786 9.02255 -0.235588 -26.8848 1.74084 55.7599 -28.7789 -0.301754 -0.00396183 11.7876 -15.6966 -2.19436 -0 -90 -3.18055e-15 -3.0705 -0.0443943 0.559064 17.0847 -0.867784 -3.97132 12.8614 0.785994 -0.0137653 12.0691 0.80075 0.123961 11.7507 0.0261526 0.232528 2.71604 -0.214887 -1.58355 14.5842 -1.61845 -0.923625 14.3566 -0.911187 -0.459364 13.8506 -0.933091 -0.638559 12.1224 -0.0852225 -0.715474 2.33304 -0.204677 -8.78688 16.5503 0.873854 2.68147 14.3495 -0.623613 -0.339524 13.0137 -0.635582 -0.46261 11.7082 -0.0586325 -0.524625 2.04342 0.0538877 -19.438 15.9565 2.49195 7.56953 17.7068 -1.81419 -0.744704 14.4924 -1.84595 -1.05722 11.7658 -0.113154 -0.991232 -95.008 59.0516 110.631 4.29923 0.0379109 -0.0503278 3.36232 0.47645 0.37515 0.0019756 0.0416069 0.141584 2.80244 -17.5999 96.9203 42.7215 -2.41874 0.000656201 -97.0687 7.83604 9.02867 -19.0044 3.53047e-06 0.00126498 14.2707 -17.2393 72.2305 25.649 -2.53989 -0.00112699 -78.6363 -21.3569 -7.87767 -20.0241 6.60234e-06 -8.59565e-05 
-10.6582 90.3924 -0.338285 -86.3979 -64.8677 -87.3226 0.218599 -11.668 0.552623 -3.78091 3.03457 0.812904 -4.35894 12.6266 0.489851 -3.65092 -0.40803 -0.175578 30.012 13.1102 1.66449 34.5149 -15.0826 9.1972 -13.9463 11.5187 170.261 -29.8806 8.52115 -55.7428 -14.8108 0.37668 -0.00268489 15.3252 7.75439 1.67126 180 -89.388 -180 3.07042 0.0444704 0.55899 -15.9401 0.781185 0.76793 -11.7546 -0.795219 0.0927648 -10.9616 -0.835006 0.206619 -10.643 -0.0593875 0.299966 -2.71603 0.214964 -1.58331 -13.5474 1.57695 0.981598 -13.2579 0.894802 -0.319486 -12.7542 0.913385 -0.482711 -11.0262 0.0594462 -0.543609 -2.33297 0.204782 -8.7873 -15.5797 -0.850798 7.68903 -13.2484 0.608552 -0.208834 -11.9138 0.61889 -0.321499 -10.6088 0.0378932 -0.372439 -2.04299 -0.0538833 -19.4375 -15.1862 -2.45696 16.4811 -16.6104 1.78749 -0.602704 -13.4033 1.76351 -0.884519 -10.677 0.0257205 -0.786579 95.0077 -59.0511 110.631 -4.29901 -0.0379956 -0.0500111 0.696347 -0.395881 0.362202 -0.00195946 -0.0416482 0.141857 14.5617 9.2197 0.0551717 -26.9274 1.71261 55.415 -28.7887 -0.303802 -0.00514352 11.8423 -15.631 -2.40418 -0 -90 3.18055e-15 -3.0705 -0.0443943 0.559064 17.0847 -0.867784 -3.97132 12.8614 0.785994 -0.0137653 12.0691 0.80075 0.123961 11.7507 0.0261526 0.232528 2.71604 -0.214887 -1.58355 14.5842 -1.61845 -0.923625 14.3566 -0.911187 -0.459364 13.8506 -0.933091 -0.638559 12.1224 -0.0852225 -0.715474 2.33304 -0.204677 -8.78688 16.5503 0.873854 2.68147 14.3495 -0.623613 -0.339524 13.0137 -0.635582 -0.46261 11.7082 -0.0586325 -0.524625 2.04342 0.0538877 -19.438 15.9565 2.49195 7.56953 17.7068 -1.81419 -0.744704 14.4924 -1.84595 -1.05722 11.7658 -0.113154 -0.991232 -95.008 59.0516 110.631 4.29923 0.0379109 -0.0503278 3.36232 0.47645 0.37515 0.0019756 0.0416069 0.141584 2.81681 -17.6594 96.8743 42.7052 -2.43741 0.000551779 -97.0667 7.86983 9.09611 -19.0556 1.07701e-05 0.00121374 14.2901 -17.3765 72.2083 25.7136 -2.53498 -0.00116964 -78.6404 -21.3193 -7.82956 -20.0824 6.41644e-06 -0.000117131 
